#!OML:ASF F:\VICON\USERDATA\INSTALL\rory3\rory3.ASF
:FULLY-SPECIFIED
:DEGREES
2324
root -2.99946 18.7471 0.443068 -1.73632 -52.6866 20.6028
lowerback 16.1688 -4.38586 2.07138
upperback 5.02599 -5.434 2.85472
thorax -3.57634 -2.74949 2.86826
lowerneck -17.4884 4.34764 -1.20107
upperneck 2.1497 6.14504 -2.42028
head 3.87901 2.86707 -0.061393
rclavicle 9.22361e-014 -7.95139e-015
rhumerus 6.64555 20.3297 -69.5148
rradius 63.5014
rwrist -71.8133
rhand -3.65647 352.299
rfingers 7.12502
rthumb 22.0838 -36.46
lclavicle 9.22361e-014 -7.95139e-015
lhumerus 52.1079 -51.1251 57.6878
lradius 31.4539
lwrist -31.3886
lhand -44.9009 27.8381
lfingers 7.12502
lthumb -17.6883 57.0536
rfemur -39.2005 31.5017 -9.96715
rtibia 33.8948
rfoot -14.1942 -4.49305
rtoes -6.70885
lfemur -8.25656 11.0635 -21.2209
ltibia 25.6646
lfoot 1.44988 29.8374
ltoes -15.0816
2325
root -2.99605 18.7481 0.440739 -1.68549 -52.6254 20.5187
lowerback 16.0751 -4.38925 2.15716
upperback 5.09003 -5.43287 2.857
thorax -3.46623 -2.75034 2.81088
lowerneck -17.8094 4.35371 -1.25741
upperneck 2.66792 6.16702 -2.27617
head 3.64798 2.87512 -0.00932937
rclavicle -6.04305e-014 -1.27222e-014
rhumerus 6.84175 19.7627 -70.0009
rradius 63.034
rwrist -67.7989
rhand -3.59985 352.579
rfingers 7.12502
rthumb 22.1382 -36.1734
lclavicle -6.04305e-014 -1.27222e-014
lhumerus 53.7119 -51.6524 55.5941
lradius 31.4253
lwrist -32.4089
lhand -45.8912 27.3867
lfingers 7.12502
lthumb -18.641 56.5135
rfemur -39.155 31.4962 -9.90039
rtibia 33.8666
rfoot -14.1492 -4.5517
rtoes -6.64563
lfemur -8.26785 10.9612 -21.1522
ltibia 25.6964
lfoot 1.46673 29.8131
ltoes -15.1124
2326
root -2.99383 18.7505 0.440038 -1.80062 -52.609 20.5883
lowerback 15.9791 -4.37623 2.13649
upperback 5.1849 -5.42969 2.84849
thorax -3.31385 -2.75108 2.79882
lowerneck -17.9871 4.39713 -1.12888
upperneck 2.73132 6.20873 -2.37268
head 3.70191 2.88858 -0.0508851
rclavicle -2.22639e-014 1.59028e-015
rhumerus 7.00571 19.2823 -70.3274
rradius 62.7863
rwrist -63.3368
rhand -3.04979 352.735
rfingers 7.12502
rthumb 22.6662 -35.9542
lclavicle -2.22639e-014 1.59028e-015
lhumerus 55.3908 -52.0444 53.5255
lradius 31.327
lwrist -33.2418
lhand -46.0619 26.7741
lfingers 7.12502
lthumb -18.8053 55.8851
rfemur -39.0626 31.5195 -9.92067
rtibia 33.8385
rfoot -14.1307 -4.56701
rtoes -6.69815
lfemur -8.21602 10.8863 -21.1923
ltibia 25.7319
lfoot 1.54697 29.8122
ltoes -15.2856
2327
root -2.98996 18.7512 0.436688 -1.91978 -52.603 20.6988
lowerback 15.9549 -4.38754 2.08389
upperback 5.21527 -5.45591 2.83977
thorax -3.26426 -2.76487 2.81974
lowerneck -17.9907 4.45451 -1.07412
upperneck 2.62866 6.27463 -2.45043
head 3.67529 2.91848 -0.0792914
rclavicle 3.81667e-014 4.77083e-015
rhumerus 7.10139 18.9686 -70.5391
rradius 62.6532
rwrist -58.8922
rhand -2.22409 353.321
rfingers 7.12502
rthumb 23.4584 -35.2684
lclavicle 3.81667e-014 4.77083e-015
lhumerus 57.7855 -52.7021 50.3566
lradius 31.4208
lwrist -32.8817
lhand -45.3055 28.1394
lfingers 7.12502
lthumb -18.0776 57.3193
rfemur -39.0327 31.5331 -9.99178
rtibia 33.8214
rfoot -14.1478 -4.57089
rtoes -6.85122
lfemur -8.19105 10.8421 -21.2668
ltibia 25.7298
lfoot 1.78044 29.769
ltoes -15.7132
2328
root -2.98775 18.7535 0.432896 -1.90338 -52.6011 20.6595
lowerback 15.9596 -4.41157 2.10595
upperback 5.1925 -5.48137 2.8707
thorax -3.28886 -2.77725 2.84638
lowerneck -17.6539 4.51575 -1.05812
upperneck 2.00871 6.3397 -2.50596
head 3.86971 2.95997 -0.0960018
rclavicle 4.13472e-014 -2.06736e-014
rhumerus 7.10732 18.5919 -70.7712
rradius 62.5571
rwrist -54.7469
rhand -1.20355 353.895
rfingers 7.12502
rthumb 24.4371 -34.5662
lclavicle 4.13472e-014 -2.06736e-014
lhumerus 59.9469 -53.2849 47.3562
lradius 31.515
lwrist -32.418
lhand -44.7612 28.2264
lfingers 7.12502
lthumb -17.5538 57.4539
rfemur -39.0371 31.6326 -10.0031
rtibia 33.8029
rfoot -14.1433 -4.63432
rtoes -6.85664
lfemur -8.1879 10.7753 -21.238
ltibia 25.7177
lfoot 1.90428 29.7913
ltoes -16.156
2329
root -2.98615 18.7558 0.431126 -1.92535 -52.5867 20.6488
lowerback 15.9838 -4.42031 2.07656
upperback 5.15023 -5.49188 2.92748
thorax -3.33763 -2.78235 2.92881
lowerneck -17.4901 4.59155 -1.01787
upperneck 1.95101 6.43726 -2.62414
head 3.82376 3.00544 -0.139136
rclavicle 1.27222e-014 -1.43125e-014
rhumerus 7.04737 18.2009 -70.9474
rradius 62.4929
rwrist -51.8486
rhand -0.0562987 354.114
rfingers 7.12502
rthumb 25.5364 -34.1942
lclavicle 1.27222e-014 -1.43125e-014
lhumerus 61.5683 -53.6187 45.1077
lradius 31.4984
lwrist -32.5667
lhand -43.7172 27.0821
lfingers 7.12502
lthumb -16.5489 56.3964
rfemur -38.9944 31.7377 -10.0186
rtibia 33.7711
rfoot -14.1284 -4.75661
rtoes -6.82059
lfemur -8.14068 10.7114 -21.2237
ltibia 25.6727
lfoot 1.80028 29.8328
ltoes -16.1413
2330
root -2.98299 18.757 0.427699 -1.83388 -52.5267 20.5315
lowerback 16.0188 -4.43358 2.13256
upperback 5.09341 -5.49358 2.97849
thorax -3.41614 -2.7822 2.95817
lowerneck -17.4521 4.63676 -0.92394
upperneck 1.99923 6.48606 -2.70578
head 3.84123 3.0263 -0.178881
rclavicle 7.95139e-015 -1.27222e-014
rhumerus 7.0023 18.0058 -70.9913
rradius 62.3113
rwrist -50.7764
rhand 0.321206 354.405
rfingers 7.12502
rthumb 25.898 -33.8508
lclavicle 7.95139e-015 -1.27222e-014
lhumerus 63.2217 -53.9271 42.8081
lradius 31.5597
lwrist -32.7168
lhand -42.2843 27.6439
lfingers 7.12502
lthumb -15.1691 57.068
rfemur -38.9501 31.7735 -9.96181
rtibia 33.7042
rfoot -14.0759 -4.86529
rtoes -6.68961
lfemur -8.09293 10.7125 -21.1421
ltibia 25.5109
lfoot 2.06207 29.8087
ltoes -16.5118
2331
root -2.98236 18.7603 0.432567 -1.90128 -52.5421 20.4769
lowerback 16.0058 -4.45724 2.21035
upperback 5.14004 -5.51721 2.95448
thorax -3.36863 -2.79442 2.89035
lowerneck -17.525 4.70034 -0.695697
upperneck 2.03726 6.53698 -2.86412
head 3.88551 3.04408 -0.265095
rclavicle 5.24792e-014 -2.8625e-014
rhumerus 7.03059 17.8917 -71.0582
rradius 62.1545
rwrist -51.1143
rhand 0.270597 354.492
rfingers 7.12502
rthumb 25.8495 -33.7713
lclavicle 5.24792e-014 -2.8625e-014
lhumerus 64.8484 -54.1094 40.486
lradius 31.5768
lwrist -32.4181
lhand -41.9698 28.1496
lfingers 7.12502
lthumb -14.8661 57.5963
rfemur -38.7682 31.8601 -9.86516
rtibia 33.6416
rfoot -14.0945 -4.86831
rtoes -6.59109
lfemur -7.85817 10.7229 -21.0905
ltibia 25.3259
lfoot 2.09028 29.8686
ltoes -16.5319
2332
root -2.98404 18.7686 0.448291 -2.44388 -52.6219 20.7937
lowerback 16.0445 -4.44004 2.11487
upperback 5.25906 -5.51927 2.87296
thorax -3.26263 -2.79765 2.85453
lowerneck -17.8096 4.72996 -0.654017
upperneck 2.58921 6.59036 -2.98501
head 3.67088 3.05178 -0.286469
rclavicle 7.95139e-015 3.49861e-014
rhumerus 7.07519 17.473 -71.2531
rradius 61.9335
rwrist -51.7729
rhand 0.329949 354.363
rfingers 7.12502
rthumb 25.9064 -33.8915
lclavicle 7.95139e-015 3.49861e-014
lhumerus 65.8264 -54.1402 39.1354
lradius 31.4543
lwrist -32.2543
lhand -42.5733 27.3999
lfingers 7.12502
lthumb -15.4474 56.8027
rfemur -38.3604 31.9797 -9.88601
rtibia 33.5994
rfoot -14.1851 -4.75957
rtoes -6.67696
lfemur -7.40733 10.8244 -21.2872
ltibia 25.2269
lfoot 1.92761 29.9093
ltoes -16.593
2333
root -2.98034 18.7699 0.448208 -2.61102 -52.5666 20.9853
lowerback 16.0372 -4.42182 1.93822
upperback 5.2484 -5.52041 2.93416
thorax -3.24758 -2.79969 3.01676
lowerneck -17.8097 4.72891 -0.725115
upperneck 2.56236 6.61052 -3.08219
head 3.66432 3.05536 -0.303896
rclavicle 2.06736e-014 -6.36111e-015
rhumerus 7.17093 17.0054 -71.3872
rradius 61.6059
rwrist -52.5472
rhand -0.0165187 354.446
rfingers 7.12502
rthumb 25.5746 -33.857
lclavicle 2.06736e-014 -6.36111e-015
lhumerus 66.3379 -54.0508 38.4709
lradius 31.2489
lwrist -32.3388
lhand -43.551 26.2644
lfingers 7.12502
lthumb -16.3889 55.592
rfemur -38.3092 31.941 -10.0202
rtibia 33.5639
rfoot -14.1931 -4.7625
rtoes -6.60016
lfemur -7.37855 10.8458 -21.4398
ltibia 25.1658
lfoot 2.00305 29.9015
ltoes -16.5243
